<?xml version="1.0" encoding="iso-8859-1"?>
<!-- Uploaded to: SVG Repo, www.svgrepo.com, Generator: SVG Repo Mixer Tools -->
<svg fill="#929dab" height="800px" width="800px" version="1.1" id="Layer_1" xmlns="http://www.w3.org/2000/svg" xmlns:xlink="http://www.w3.org/1999/xlink" 
	 viewBox="0 0 512 512" xml:space="preserve">
<g>
	<g>
		<g>
			<path d="M306.575,137.641l67.422,67.644c4.446,4.454,8.841,7.859,13.414,10.377c18.005,9.89,32.853,8.073,46.703-5.769
				l8.329-8.346c1.382-1.374,1.69-3.439,0.785-5.154c-3.721-7.023-17.929-17.169-26.018-21.914c-1.698-0.956-2.91-0.99-3.132-0.939
				l-0.452,1.041c-8.243,9.882-10.351,11.315-11.145,11.853c-12.373,8.388-25.045,7.142-35.678-3.49l-37.743-37.751
				c-10.633-10.624-11.87-23.296-3.499-35.669c0.546-0.811,1.98-2.901,11.853-11.145l1.246-0.862c-0.162,0-0.256-1.161-1.203-2.816
				c-4.693-8.004-14.848-22.221-21.845-25.924c-1.724-0.905-3.797-0.589-5.163,0.776l-8.329,8.337
				c-12.902,12.902-15.343,26.547-7.68,42.948C297.137,126.616,301.224,132.265,306.575,137.641z"/>
			<path d="M366.933,290.133c79.991,0,145.067-65.075,145.067-145.067S446.925,0,366.933,0c-59.52,0-110.737,36.062-133.069,87.467
				c-6.912-1.408-13.781-2.133-20.531-2.133c-61.167,0-110.933,52.634-110.933,117.333v44.8c0,30.438,10.061,63.061,26.795,89.685
				l-8.755,27.162c-0.691,2.133-0.35,4.395,0.64,6.383c-27.785,5.419-59.076,17.69-99.311,38.861C8.337,416.623,0,430.447,0,445.636
				v57.83C0,508.186,3.823,512,8.533,512h153.6h102.4h153.6c4.719,0,8.533-3.814,8.533-8.533v-57.83
				c0-15.189-8.337-29.013-21.76-36.079c-40.235-21.171-71.526-33.442-99.311-38.861c0.99-1.988,1.331-4.25,0.64-6.383l-8.687-26.94
				c10.522-16.759,18.313-35.84,22.665-55.108C334.899,287.283,350.575,290.133,366.933,290.133z M290.048,65.826l8.328-8.346
				c6.716-6.69,16.836-8.226,25.216-3.789c13.542,7.168,27.136,29.901,28.646,32.469c3.14,5.513,4.07,11.281,2.671,16.333
				c-1.101,3.959-3.533,7.194-7.066,9.412c-3.456,2.901-7.518,6.502-8.414,7.543c-3.584,5.333-3.243,8.738,1.698,13.679
				l37.743,37.743c4.932,4.932,8.337,5.299,14.029,1.434c0.717-0.64,4.301-4.693,7.202-8.158c2.219-3.524,5.461-5.956,9.429-7.057
				c5.035-1.408,10.803-0.469,16.222,2.62c2.654,1.553,25.387,15.155,32.555,28.698c4.437,8.38,2.91,18.517-3.797,25.207
				l-8.32,8.346c-11.315,11.307-24.004,16.99-37.547,16.99c-9.455,0-19.328-2.773-29.457-8.346
				c-5.931-3.251-11.75-7.723-17.28-13.269l-67.422-67.644c-6.758-6.784-11.972-14.063-15.514-21.632
				C268.322,105.25,272.154,83.721,290.048,65.826z M142.345,372.344v-0.009l-4.403-6.673l3.635-11.29
				c0.137,0.162,0.282,0.307,0.41,0.461c0.521,0.606,1.067,1.161,1.587,1.758c1.946,2.219,3.925,4.352,5.948,6.383
				c1.016,1.016,2.057,1.988,3.098,2.97c1.613,1.51,3.251,2.953,4.915,4.343c1.203,1.016,2.398,2.039,3.635,2.995
				c1.954,1.502,3.942,2.884,5.948,4.224c1.971,1.323,3.985,2.534,6.025,3.695c1.493,0.853,2.987,1.698,4.497,2.458
				c1.544,0.777,3.106,1.493,4.685,2.176c1.724,0.742,3.473,1.399,5.222,2.022c1.314,0.461,2.611,0.998,3.951,1.391
				c2.603,0.785,5.222,1.434,7.859,1.937l-20.676,36.25L142.345,372.344z M213.308,401.246l19.448,33.954h-38.844L213.308,401.246z
				 M173.449,494.933l12.194-42.667h55.39l12.194,42.667H173.449z M284.331,372.335v0.009l-36.343,55.1l-20.71-36.241
				c0.862-0.171,1.715-0.435,2.569-0.631c21.214-4.676,40.124-17.929,55.305-36.036l3.584,11.127L284.331,372.335z M279.962,332.826
				c-1.749,2.551-3.541,5.026-5.393,7.373c-0.444,0.563-0.887,1.143-1.34,1.698c-9.865,12.117-20.949,21.265-32.538,26.914
				c-0.094,0.043-0.188,0.094-0.282,0.137c-2.756,1.331-5.547,2.432-8.346,3.362c-0.247,0.085-0.495,0.188-0.742,0.265
				c-2.628,0.836-5.274,1.451-7.927,1.92c-0.384,0.068-0.759,0.188-1.143,0.247c-2.97,0.469-5.948,0.725-8.917,0.725
				c-3.106,0-6.178-0.282-9.216-0.768c-18.133-2.978-36.011-14.618-51.012-33.178c-0.64-0.802-1.22-1.673-1.852-2.483
				c-1.664-2.167-3.311-4.361-4.89-6.699c-16.631-24.636-26.897-56.209-26.897-84.873v-44.8c0-55.287,42.112-100.267,93.867-100.267
				c4.796,0,9.685,0.435,14.626,1.306c-1.613,5.385-2.833,10.931-3.814,16.563c-0.41,2.355-0.785,4.719-1.084,7.083
				c-0.196,1.638-0.401,3.268-0.546,4.915c-0.384,4.258-0.648,8.525-0.648,12.8c0,4.454,0.273,8.858,0.674,13.227
				c0.111,1.186,0.247,2.364,0.384,3.541c0.418,3.644,0.964,7.245,1.647,10.803c0.145,0.725,0.247,1.459,0.393,2.185
				c0.896,4.301,2.005,8.542,3.277,12.715c0.188,0.614,0.41,1.22,0.606,1.835c1.229,3.823,2.603,7.586,4.139,11.273
				c0.179,0.444,0.35,0.887,0.538,1.323c12.621,29.645,34.935,54.605,64,70.434c0.324,0.179,0.648,0.333,0.964,0.512
				c1.886,0.998,3.738,2.039,5.675,2.97C300.006,295.799,291.499,315.904,279.962,332.826z"/>
		</g>
	</g>
</g>
</svg>